<svg id="Layer_1" data-name="Layer 1" xmlns="http://www.w3.org/2000/svg" viewBox="0 0 153.84 167.38"><defs><style>.cls-1{fill:#f1efb3;}</style></defs><polyline class="cls-1" points="0 0 0 49.39 29.29 49.39 29.29 75.06 6.28 75.06 6.28 167.38 74.25 167.38 74.25 87.61 153.84 87.61 153.84 38.07 98.58 38.07 98.58 0"/><path d="M14,38.84l7.36-28h9.2l7.36,28H32.52L31,32.68H21l-1.52,6.16Zm8.2-11h7.52l-3.4-13.64h-.72Z"/><path d="M41.32,38.84v-28H53.48a10.79,10.79,0,0,1,4.6.92,6.89,6.89,0,0,1,4.12,6.56v.48A6.51,6.51,0,0,1,61,22.88a7.08,7.08,0,0,1-3,2.28v.72A3.36,3.36,0,0,1,60.52,27a4,4,0,0,1,.88,2.7v9.16H56.12v-8.4a2.37,2.37,0,0,0-.5-1.56,2,2,0,0,0-1.66-.6H46.6V38.84ZM46.6,23.48h6.32a4.08,4.08,0,0,0,2.94-1,3.56,3.56,0,0,0,1.06-2.7v-.4a3.62,3.62,0,0,0-1-2.7,4,4,0,0,0-3-1H46.6Z"/><path d="M72.6,38.84V15.64H64.44v-4.8H86v4.8H77.88v23.2Z"/><path d="M40.16,76.84V72.2h3.68V53.48H40.16V48.84h14.4A10.79,10.79,0,0,1,59,49.7a7,7,0,0,1,3,2.44A6.63,6.63,0,0,1,63,55.92v.4a6.11,6.11,0,0,1-.72,3.14,5.68,5.68,0,0,1-1.7,1.88,7.07,7.07,0,0,1-1.86.94V63a7.1,7.1,0,0,1,1.92.9,5.64,5.64,0,0,1,1.78,1.9A6.32,6.32,0,0,1,63.2,69v.4a7.11,7.11,0,0,1-1.08,4,6.86,6.86,0,0,1-3,2.54,10.38,10.38,0,0,1-4.42.88Zm9-16.48H54a4.23,4.23,0,0,0,2.7-.84,2.78,2.78,0,0,0,1.06-2.32v-.4a2.82,2.82,0,0,0-1-2.34A4.3,4.3,0,0,0,54,53.64H49.12Zm0,11.68h5a4.34,4.34,0,0,0,2.78-.84,2.87,2.87,0,0,0,1.06-2.4v-.4a2.92,2.92,0,0,0-1-2.4,4.33,4.33,0,0,0-2.8-.84h-5Z"/><path d="M65.36,76.84l7.36-28h9.2l7.36,28H83.84l-1.52-6.16h-10L70.8,76.84Zm8.2-11h7.52l-3.4-13.64H77Z"/><path d="M102.36,77.4a13.25,13.25,0,0,1-5.72-1.16,9.08,9.08,0,0,1-3.88-3.32,9.37,9.37,0,0,1-1.4-5.2V66.6h5.2v1.12a4.57,4.57,0,0,0,1.56,3.78,6.55,6.55,0,0,0,4.24,1.26,6.39,6.39,0,0,0,4.06-1.08,3.4,3.4,0,0,0,1.34-2.76A2.68,2.68,0,0,0,107.1,67a4.81,4.81,0,0,0-1.92-1.18,26.52,26.52,0,0,0-3.06-.86l-.92-.2a22.54,22.54,0,0,1-4.94-1.62A7.72,7.72,0,0,1,93.1,60.6,7.2,7.2,0,0,1,92,56.44a7.74,7.74,0,0,1,1.22-4.38,7.87,7.87,0,0,1,3.44-2.8,12.9,12.9,0,0,1,5.22-1,13.25,13.25,0,0,1,5.34,1,8.29,8.29,0,0,1,3.68,3,9,9,0,0,1,1.34,5.06v1.2H107V57.4a4.83,4.83,0,0,0-.62-2.58,3.65,3.65,0,0,0-1.78-1.44,7.59,7.59,0,0,0-2.76-.46,5.69,5.69,0,0,0-3.54.9,3,3,0,0,0-1.14,2.46A2.84,2.84,0,0,0,97.74,58a4,4,0,0,0,1.62,1.2,14.29,14.29,0,0,0,2.76.84l.92.2a26.57,26.57,0,0,1,5.22,1.64,8.79,8.79,0,0,1,3.46,2.64,6.84,6.84,0,0,1,1.24,4.2,7.85,7.85,0,0,1-1.3,4.5,8.62,8.62,0,0,1-3.68,3A13.2,13.2,0,0,1,102.36,77.4Z"/><path d="M116.88,76.84v-28h5.28V60.4h10.4V48.84h5.28v28h-5.28V65.2h-10.4V76.84Z"/><path d="M17.44,114.84v-3.36a11,11,0,0,1,1-4.86,8.39,8.39,0,0,1,2.78-3.2,16,16,0,0,1,4.46-2.06l2.68-.84a9.23,9.23,0,0,0,2.48-1.18,4.8,4.8,0,0,0,1.54-1.7,4.69,4.69,0,0,0,.54-2.28V95.2A4,4,0,0,0,31.52,92a5.53,5.53,0,0,0-3.72-1.18,5.43,5.43,0,0,0-3.74,1.26,4.58,4.58,0,0,0-1.42,3.62v.72H17.52V95.8a9.36,9.36,0,0,1,1.36-5.16,8.89,8.89,0,0,1,3.7-3.24,12,12,0,0,1,5.22-1.12,12,12,0,0,1,5.2,1.1,8.94,8.94,0,0,1,3.66,3.08A8.15,8.15,0,0,1,38,95.12v.4a8.4,8.4,0,0,1-4.08,7.58A18.07,18.07,0,0,1,29.64,105l-2.56.8A11,11,0,0,0,24.4,107a3.75,3.75,0,0,0-1.34,1.36,3.93,3.93,0,0,0-.38,1.78v.16H37.76v4.56Z"/><path d="M52.48,115.4a11.32,11.32,0,0,1-8-2.74q-3-2.73-3-8.3v-7q0-5.4,3-8.22a11.14,11.14,0,0,1,8-2.82,11.14,11.14,0,0,1,8,2.82q3,2.82,3,8.22v7q0,5.56-3,8.3A11.33,11.33,0,0,1,52.48,115.4Zm0-4.56a5.52,5.52,0,0,0,4.42-1.64,6.91,6.91,0,0,0,1.42-4.68V97.08a6.35,6.35,0,0,0-1.58-4.66,5.76,5.76,0,0,0-4.26-1.58,5.63,5.63,0,0,0-4.3,1.64,6.46,6.46,0,0,0-1.54,4.6v7.44a6.78,6.78,0,0,0,1.46,4.74A5.64,5.64,0,0,0,52.48,110.84Z"/><path d="M17.44,152.84v-3.36a11,11,0,0,1,1-4.86,8.39,8.39,0,0,1,2.78-3.2,16,16,0,0,1,4.46-2.06l2.68-.84a9.23,9.23,0,0,0,2.48-1.18,4.8,4.8,0,0,0,1.54-1.7,4.69,4.69,0,0,0,.54-2.28v-.16A4,4,0,0,0,31.52,130a5.53,5.53,0,0,0-3.72-1.18,5.43,5.43,0,0,0-3.74,1.26,4.58,4.58,0,0,0-1.42,3.62v.72H17.52v-.64a9.36,9.36,0,0,1,1.36-5.16,8.89,8.89,0,0,1,3.7-3.24,12,12,0,0,1,5.22-1.12,12,12,0,0,1,5.2,1.1,8.94,8.94,0,0,1,3.66,3.08A8.15,8.15,0,0,1,38,133.12v.4a8.4,8.4,0,0,1-4.08,7.58A18.07,18.07,0,0,1,29.64,143l-2.56.8A11,11,0,0,0,24.4,145a3.75,3.75,0,0,0-1.34,1.36,3.93,3.93,0,0,0-.38,1.78v.16H37.76v4.56Z"/><path d="M51.64,153.4A12.71,12.71,0,0,1,46,152.24,8.41,8.41,0,0,1,42.32,149,9.35,9.35,0,0,1,41,144v-.4h5.2V144a4.8,4.8,0,0,0,1.34,3.42,5.2,5.2,0,0,0,4,1.42,5.49,5.49,0,0,0,4.06-1.42,5,5,0,0,0,1.42-3.7v-.4a4.62,4.62,0,0,0-1.42-3.56,5,5,0,0,0-3.54-1.32,5.06,5.06,0,0,0-1.92.32,3.91,3.91,0,0,0-1.24.8,6.16,6.16,0,0,0-.8,1h-6.2V124.84H61v4.64H47v6.84h.72a5.28,5.28,0,0,1,1.08-1,6.14,6.14,0,0,1,1.76-.8,9.17,9.17,0,0,1,2.56-.32,9.86,9.86,0,0,1,4.52,1,8.06,8.06,0,0,1,3.26,3.06,9.52,9.52,0,0,1,1.22,5v.48a10,10,0,0,1-1.26,5.12,8.43,8.43,0,0,1-3.62,3.34A12.42,12.42,0,0,1,51.64,153.4Z"/></svg>